<?xml version="1.0" encoding="UTF-8" standalone="no"?>
<!-- Created with Inkscape (http://www.inkscape.org/) -->

<svg
   xmlns:dc="http://purl.org/dc/elements/1.1/"
   xmlns:cc="http://creativecommons.org/ns#"
   xmlns:rdf="http://www.w3.org/1999/02/22-rdf-syntax-ns#"
   xmlns:svg="http://www.w3.org/2000/svg"
   xmlns="http://www.w3.org/2000/svg"
   version="1.1"
   width="744.09448"
   height="1052.3622"
   id="svg2">
  <defs
     id="defs4" />
  <metadata
     id="metadata7">
    <rdf:RDF>
      <cc:Work
         rdf:about="">
        <dc:format>image/svg+xml</dc:format>
        <dc:type
           rdf:resource="http://purl.org/dc/dcmitype/StillImage" />
        <dc:title></dc:title>
      </cc:Work>
    </rdf:RDF>
  </metadata>
  <g
     id="layer1">
    <path
       d="m 121.48944,55.303906 c 31.91582,-8.93643 128.93991,108.513774 128.93991,108.513774 0,0 44.68215,-16.59622 116.17358,-16.59622 71.49143,0 122.55674,25.53265 122.55674,25.53265 0,0 88.6284,-137.227274 117.45022,-116.173584 37.68065,15.03787 25.58718,174.689254 8.93643,246.390114 -6.38317,25.53265 -8.93643,35.74574 -8.93643,35.74574 0,0 -30.63917,97.02408 -34.46907,116.17356 -30.35687,57.2338 -27.61316,58.3228 -48.51207,79.15124 -36.30285,28.60356 -77.36394,55.66119 -77.36394,55.66119 0,0 -29.35091,42.67715 -76.59795,43.40552 -44.71173,0.68927 -81.70449,-43.40552 -81.70449,-43.40552 0,0 -34.44298,-28.17848 -69.44883,-54.38455 -42.0133,-31.45202 -34.46909,-34.4691 -66.38491,-91.91757 C 125.41876,395.32245 126.59599,339.993 126.59599,339.993 c 0,0 -6.38317,-10.21305 -11.48969,-45.95877 C 97.452634,227.62345 84.974857,64.351036 121.48944,55.303906 z"
       id="path3011"
       style="fill:none;stroke:#ff6600;stroke-width:1.7872858px;stroke-linecap:butt;stroke-linejoin:miter;stroke-opacity:1" />
    <path
       d="m 147.02211,250.62871 c 0,0 -21.15396,-146.68323 -10.21305,-153.195934 8.35441,-4.97307 71.49143,88.087664 71.49143,88.087664 0,0 -9.92623,4.17548 -34.4691,24.25601 -28.08592,22.97938 -26.80928,40.85226 -26.80928,40.85226 z"
       id="path3013"
       style="fill:none;stroke:#00ffff;stroke-width:1.7872858px;stroke-linecap:butt;stroke-linejoin:miter;stroke-opacity:1" />
    <path
       d="m 583.33662,253.2782 c 0,0 21.15396,-146.68323 10.21306,-153.19593 -8.35442,-4.973074 -71.49144,88.08766 -71.49144,88.08766 0,0 9.92623,4.17548 34.4691,24.25601 28.08593,22.97938 26.80928,40.85226 26.80928,40.85226 z"
       id="path3013-7"
       style="fill:none;stroke:#00ffff;stroke-width:1.7872858px;stroke-linecap:butt;stroke-linejoin:miter;stroke-opacity:1" />
    <path
       d="m 222.08809,395.90951 c 0,0 12.76634,-15.3196 42.12889,-6.38317 29.36255,8.93643 34.46907,28.08591 34.46907,28.08591 0,0 -21.70274,7.65979 -44.68214,2.55326 -22.97939,-5.10652 -31.91582,-24.256 -31.91582,-24.256 z"
       id="path3033"
       style="fill:none;stroke:#000080;stroke-width:1.7872858px;stroke-linecap:butt;stroke-linejoin:miter;stroke-opacity:1" />
    <path
       d="m 512.13906,393.36741 c 0,0 -12.76633,-15.31959 -42.12888,-6.38316 -29.36255,8.93643 -34.46908,28.08591 -34.46908,28.08591 0,0 21.70274,7.65979 44.68215,2.55326 22.97938,-5.10653 31.91581,-24.25601 31.91581,-24.25601 z"
       id="path3033-4"
       style="fill:none;stroke:#000080;stroke-width:1.7872858px;stroke-linecap:butt;stroke-linejoin:miter;stroke-opacity:1" />
    <path
       d="m 365.02983,554.97794 c 0,0 -20.80981,-3.9385 -21.40628,-30.72326 -0.30936,-13.89215 6.01589,-25.14547 23.88875,-25.14547 17.87286,0 24.91595,6.0823 24.6233,25.22956 -0.45137,29.53072 -19.97476,30.56175 -19.97476,30.56175 l -0.45137,28.16335 c 0,0 2.49475,1.40184 16.72453,-1.12175 15.77157,-2.79704 26.68098,-10.36794 26.68098,-10.36794 0,0 -15.3196,20.42612 -48.51205,20.42612 -33.19243,0 -40.85224,-12.76633 -40.85224,-12.76633 0,0 7.19243,3.19683 21.18725,4.35869 13.5916,1.1284 17.86621,-0.3739 17.86621,-0.3739 z"
       id="path3053"
       style="fill:none;stroke:#000080;stroke-width:1.7872858px;stroke-linecap:butt;stroke-linejoin:miter;stroke-opacity:1" />
  </g>
</svg>
