<?xml version="1.0" encoding="UTF-8" standalone="no"?>
<!-- Created with Inkscape (http://www.inkscape.org/) -->

<svg
   xmlns:dc="http://purl.org/dc/elements/1.1/"
   xmlns:cc="http://creativecommons.org/ns#"
   xmlns:rdf="http://www.w3.org/1999/02/22-rdf-syntax-ns#"
   xmlns:svg="http://www.w3.org/2000/svg"
   xmlns="http://www.w3.org/2000/svg"
   xmlns:inkscape="http://www.inkscape.org/namespaces/inkscape"
   version="1.0"
   width="800pt"
   height="600pt"
   viewBox="0 0 800 600"
   id="svg2">
  <defs
     id="defs20" />
  <metadata
     id="metadata4">
Created by potrace 1.10, written by Peter Selinger 2001-2011
<rdf:RDF>
  <cc:Work
     rdf:about="">
    <dc:format>image/svg+xml</dc:format>
    <dc:type
       rdf:resource="http://purl.org/dc/dcmitype/StillImage" />
  </cc:Work>
</rdf:RDF>
</metadata>
  <g
     transform="matrix(0.1,0,0,-0.1,0,600)"
     id="g6"
     style="fill:#000000;stroke:none">
    <path
       d="m 1120,3330 0,-400 55,0 55,0 0,143 0,143 66,59 c 36,32 69,54 72,48 4,-5 68,-96 142,-201 l 134,-192 69,0 c 52,0 66,3 61,13 -5,6 -81,112 -171,233 -90,122 -163,225 -163,229 0,4 73,79 163,166 l 162,158 -70,1 -70,0 -197,-197 -198,-198 0,198 0,197 -55,0 -55,0 0,-400 z"
       inkscape:connector-curvature="0"
       id="path8" />
    <path
       d="m 2198,3347 c -81,-210 -150,-390 -154,-399 -5,-16 1,-18 49,-18 l 55,0 16,43 c 9,23 29,78 45,122 l 29,80 165,3 166,2 48,-125 48,-125 58,0 c 31,0 57,3 57,8 0,4 -73,184 -162,400 l -162,392 -55,0 -56,0 -147,-383 z m 212,262 c 0,-6 27,-82 60,-170 33,-88 60,-162 60,-164 0,-3 -58,-5 -129,-5 l -128,0 53,143 c 30,78 57,159 60,179 4,21 10,35 15,32 5,-3 9,-10 9,-15 z"
       inkscape:connector-curvature="0"
       id="path10" />
    <path
       d="m 3026,3718 c 4,-7 74,-113 156,-235 l 148,-223 0,-165 0,-165 50,0 50,0 0,169 0,170 93,133 c 51,73 123,177 160,231 l 68,97 -63,0 -63,0 -119,-185 c -66,-102 -121,-185 -122,-185 -1,0 -17,24 -34,53 -17,28 -71,112 -118,184 l -87,133 -63,0 c -48,0 -61,-3 -56,-12 z"
       inkscape:connector-curvature="0"
       id="path12" />
    <path
       d="m 4130,3330 0,-400 250,0 250,0 0,45 0,45 -195,0 -195,0 0,355 0,355 -55,0 -55,0 0,-400 z"
       inkscape:connector-curvature="0"
       id="path14" />
    <path
       d="m 5175,3688 c -9,-24 -70,-180 -135,-348 -65,-168 -127,-329 -139,-357 l -21,-53 58,0 57,0 44,125 45,125 165,0 166,0 48,-125 48,-125 60,0 c 32,0 59,1 59,3 0,1 -74,180 -164,397 l -163,395 -55,3 -55,3 -18,-43 z m 77,-416 c -69,-1 -126,-1 -128,1 -2,2 20,69 50,148 29,79 57,159 61,178 6,30 12,19 74,-145 l 68,-179 -125,-3 z"
       inkscape:connector-curvature="0"
       id="path16" />
  </g>
</svg>
