<?xml version="1.0" encoding="UTF-8" standalone="no"?>
<!-- Created with Inkscape (http://www.inkscape.org/) -->

<svg
   xmlns:dc="http://purl.org/dc/elements/1.1/"
   xmlns:cc="http://creativecommons.org/ns#"
   xmlns:rdf="http://www.w3.org/1999/02/22-rdf-syntax-ns#"
   xmlns:svg="http://www.w3.org/2000/svg"
   xmlns="http://www.w3.org/2000/svg"
   xmlns:inkscape="http://www.inkscape.org/namespaces/inkscape"
   version="1.0"
   width="800pt"
   height="600pt"
   viewBox="0 0 800 600"
   id="svg2">
  <defs
     id="defs12" />
  <metadata
     id="metadata4">
Created by potrace 1.10, written by Peter Selinger 2001-2011
<rdf:RDF>
  <cc:Work
     rdf:about="">
    <dc:format>image/svg+xml</dc:format>
    <dc:type
       rdf:resource="http://purl.org/dc/dcmitype/StillImage" />
  </cc:Work>
</rdf:RDF>
</metadata>
  <g
     transform="matrix(0.1,0,0,-0.1,0,600)"
     id="g6"
     style="fill:#000000;stroke:none">
    <path
       d="m 941,5667 c -5,-12 -44,-138 -87,-279 l -79,-258 -235,-2 c -308,-4 -305,5 -56,-193 l 184,-147 -12,-42 c -7,-22 -48,-155 -91,-294 -66,-211 -76,-255 -64,-263 8,-5 19,-7 26,-5 6,3 113,82 237,175 l 225,171 185,-150 c 174,-141 216,-166 216,-127 0,7 -30,116 -66,245 -37,128 -65,234 -63,236 87,70 465,346 474,346 7,0 15,6 18,13 14,36 -3,38 -310,37 l -300,-1 -20,68 c -11,38 -46,161 -78,275 -47,166 -62,208 -77,212 -13,3 -22,-2 -27,-17 z m 89,-292 c 35,-121 65,-226 67,-232 4,-10 -27,-13 -136,-13 -78,0 -141,3 -141,7 0,4 27,95 61,202 83,271 81,263 84,259 1,-2 31,-102 65,-223 z M 733,4998 c -14,-46 -31,-100 -37,-121 -6,-22 -15,-38 -21,-37 -5,0 -77,55 -159,121 l -148,119 195,0 195,0 -25,-82 z m 425,-72 c 24,-84 44,-160 45,-169 1,-9 -43,-49 -106,-96 l -107,-81 -133,106 c -111,90 -132,111 -131,133 1,14 18,79 38,144 l 37,117 157,0 157,0 43,-154 z m 366,56 c -71,-54 -163,-124 -204,-155 l -75,-56 -42,147 c -23,81 -43,150 -43,155 0,4 111,7 246,7 l 247,0 -129,-98 z M 950,4555 c 0,-3 -90,-72 -200,-155 -110,-83 -200,-146 -200,-141 0,6 32,112 70,238 39,125 73,236 76,245 4,14 30,-2 130,-83 68,-55 124,-102 124,-104 z m 330,-53 c 28,-101 50,-185 48,-187 -2,-3 -72,50 -155,117 l -151,122 97,73 c 53,39 99,69 102,65 4,-4 30,-89 59,-190 z"
       inkscape:connector-curvature="0"
       id="path8" />
  </g>
</svg>
