<?xml version="1.0" encoding="UTF-8" standalone="no"?>
<!-- Created with Inkscape (http://www.inkscape.org/) -->

<svg
   xmlns:dc="http://purl.org/dc/elements/1.1/"
   xmlns:cc="http://creativecommons.org/ns#"
   xmlns:rdf="http://www.w3.org/1999/02/22-rdf-syntax-ns#"
   xmlns:svg="http://www.w3.org/2000/svg"
   xmlns="http://www.w3.org/2000/svg"
   xmlns:inkscape="http://www.inkscape.org/namespaces/inkscape"
   version="1.0"
   width="297pt"
   height="298pt"
   viewBox="0 0 297 298"
   id="svg2">
  <defs
     id="defs12" />
  <metadata
     id="metadata4">
Created by potrace 1.10, written by Peter Selinger 2001-2011
<rdf:RDF>
  <cc:Work
     rdf:about="">
    <dc:format>image/svg+xml</dc:format>
    <dc:type
       rdf:resource="http://purl.org/dc/dcmitype/StillImage" />
  </cc:Work>
</rdf:RDF>
</metadata>
  <g
     transform="matrix(0.1,0,0,-0.1,0,298)"
     id="g6"
     style="fill:#000000;stroke:none">
    <path
       d="M 0,1490 0,0 l 1485,0 1485,0 0,1490 0,1490 -1485,0 -1485,0 0,-1490 z m 1511,1381 c -7,-5 -31,-6 -52,-4 -28,4 -45,1 -57,-10 -16,-14 -19,-14 -42,3 l -25,20 95,0 c 58,0 90,-4 81,-9 z m 144,-1 c 3,-5 -3,-10 -14,-10 -11,0 -23,5 -26,10 -3,6 3,10 14,10 11,0 23,-4 26,-10 z m 211,-40 c 437,-123 798,-472 938,-906 15,-44 33,-111 42,-150 17,-77 30,-367 20,-438 l -7,-46 -44,0 c -52,0 -69,19 -80,89 -8,48 -34,81 -65,81 -11,0 -50,25 -85,55 -75,63 -98,71 -171,58 -47,-8 -56,-7 -71,9 -26,29 -74,23 -134,-18 -77,-52 -104,-64 -139,-64 -60,0 -74,16 -91,104 -13,69 -31,86 -91,86 -60,0 -65,10 -45,92 11,45 13,66 5,75 -17,21 -54,15 -72,-12 -33,-51 -103,-77 -151,-58 -25,9 -65,101 -65,148 1,98 74,173 144,146 24,-9 35,-7 61,9 38,24 102,26 132,5 12,-8 38,-37 58,-65 20,-27 41,-50 46,-50 22,0 19,33 -11,101 -36,81 -32,111 17,130 39,15 43,26 37,94 -5,65 -3,72 39,98 15,10 27,26 27,37 0,23 30,41 60,37 13,-1 28,7 37,20 15,22 15,23 -14,17 -26,-5 -34,-1 -52,25 -22,30 -54,41 -66,21 -3,-5 -11,-10 -17,-10 -6,0 -1,11 12,25 17,18 32,24 58,22 28,-2 37,2 40,16 5,24 -24,67 -46,67 -9,0 -39,16 -66,35 -33,23 -61,35 -82,35 -18,0 -56,9 -84,20 -50,20 -100,26 -100,13 0,-3 11,-21 25,-39 14,-18 25,-45 25,-59 0,-14 5,-35 10,-46 17,-30 -4,-24 -71,22 -70,47 -118,69 -154,69 -39,0 -30,25 25,64 29,21 50,44 50,55 0,17 5,18 47,10 26,-5 80,-18 119,-29 z m -896,-80 c 4,-8 22,-45 40,-83 l 32,-67 -15,-58 c -9,-31 -26,-85 -38,-120 l -22,-63 85,-172 c 77,-155 133,-246 145,-233 2,2 -12,36 -32,76 -55,109 -28,138 33,36 18,-29 44,-64 58,-77 15,-13 43,-58 64,-99 21,-41 48,-85 59,-97 35,-36 96,-63 194,-84 83,-17 123,-31 252,-89 22,-10 67,-41 100,-70 77,-66 130,-94 166,-86 41,8 59,-15 59,-75 0,-57 -11,-82 -51,-120 -20,-18 -29,-39 -34,-75 -3,-27 -10,-59 -15,-71 -15,-36 97,-263 161,-325 89,-86 77,-118 -198,-515 C 1926,159 1933,163 1755,122 1652,98 1324,99 1213,123 655,243 244,655 122,1215 c -13,61 -17,127 -17,275 0,209 10,278 61,435 95,292 295,556 548,723 60,40 117,72 127,72 10,0 21,5 24,10 9,14 66,39 84,37 8,-1 17,-9 21,-17 z M 2366,412 c -7,-11 -96,-74 -96,-68 0,5 91,75 98,76 2,0 1,-3 -2,-8 z"
       inkscape:connector-curvature="0"
       id="path8" />
  </g>
</svg>
